<?xml version="1.0" encoding="UTF-8" standalone="no"?>
<svg
   xmlns:dc="http://purl.org/dc/elements/1.1/"
   xmlns:cc="http://creativecommons.org/ns#"
   xmlns:rdf="http://www.w3.org/1999/02/22-rdf-syntax-ns#"
   xmlns:svg="http://www.w3.org/2000/svg"
   xmlns="http://www.w3.org/2000/svg"
   version="1.1"
   id="svg11381"
   viewBox="0 0 323.1294 83.985301"
   height="23.702518mm"
   width="91.194298mm">
  <defs
     id="defs11383" />
  <metadata
     id="metadata11386">
    <rdf:RDF>
      <cc:Work
         rdf:about="">
        <dc:format>image/svg+xml</dc:format>
        <dc:type
           rdf:resource="http://purl.org/dc/dcmitype/StillImage" />
        <dc:title></dc:title>
      </cc:Work>
    </rdf:RDF>
  </metadata>
  <g
     transform="translate(-290.34431,-411.56624)"
     id="layer1">
    <g
       transform="matrix(1.2308742,0,0,1.2308742,-67.033009,-114.41006)"
       id="g11979">
      <g
         id="g6264"
         transform="matrix(2.0974204,0,0,-2.0974204,397.35868,488.62354)">
        <path
           d="m 0,0 c 3.157,0 5.708,1.683 5.708,3.456 l 0,9.533 -4.963,0 0,-8.689 c 0,-0.615 -0.619,-1.115 -1.387,-1.115 -0.765,0 -1.387,0.5 -1.387,1.115 l 0,8.689 -4.962,0 0,-9.533 C -6.991,1.683 -4.436,0 -1.282,0 L 0,0 Z"
           style="fill:#000000;fill-opacity:1;fill-rule:nonzero;stroke:none"
           id="path6266" />
      </g>
      <g
         id="g6268"
         transform="matrix(2.0974204,0,0,-2.0974204,493.60868,488.62354)">
        <path
           d="m 0,0 c 3.147,0 5.703,1.683 5.703,3.456 l 0,9.547 -4.96,0 0,-8.703 c 0,-0.615 -0.619,-1.115 -1.388,-1.115 -0.764,0 -1.387,0.5 -1.387,1.115 l 0,8.703 -4.957,0 0,-9.547 C -6.989,1.683 -4.437,0 -1.286,0 L 0,0 Z"
           style="fill:#000000;fill-opacity:1;fill-rule:nonzero;stroke:none"
           id="path6270" />
      </g>
      <g
         id="g6272"
         transform="matrix(2.0974204,0,0,-2.0974204,431.87593,456.49274)">
        <path
           d="m 0,0 2.8,0 c 1.118,0 2.024,0.909 2.024,2.026 l 0,1.903 L 0,3.929 0,0 Z"
           style="fill:#000000;fill-opacity:1;fill-rule:nonzero;stroke:none"
           id="path6274" />
      </g>
      <path
         d="m 441.99262,461.36694 -10.11795,0 0,26.61417 10.11795,0 0,-26.61417 z"
         style="fill:#000000;fill-opacity:1;fill-rule:nonzero;stroke:none"
         id="path6276" />
      <g
         id="g6278"
         transform="matrix(2.0974204,0,0,-2.0974204,539.93817,482.30801)">
        <path
           d="m 0,0 c -1.213,0 -1.283,0.743 -1.291,0.973 l 0,0.08 c 0,0.748 0.832,1.214 1.34,1.277 0.239,0.031 0.748,0.038 1.193,0.079 l 0,-1.395 C 1.242,0.583 1.407,0 0,0 m 6.163,7.659 c 0,1.421 -1.544,2.087 -3.215,2.358 -1.388,0.224 -2.384,0.253 -3.626,0.253 -1.241,0 -3.232,-0.311 -3.772,-0.5 l 0,-2.881 C -3.185,7.105 -0.184,7.307 0.589,7.187 1.171,7.095 1.202,6.468 1.202,6.223 1.202,5.977 1.199,5.17 0.526,5.045 -0.036,4.94 -2.575,4.635 -3.862,4.336 -5.151,4.038 -6.12,3.198 -6.12,1.193 l 0,-0.693 c 0,-0.344 0.002,-1.906 1.242,-2.713 1.247,-0.804 3.085,-0.891 4.775,-0.891 1.929,0 3.401,0.151 4.247,0.4 0.641,0.2 2.019,0.491 2.019,2.548 l 0,7.815 z"
           style="fill:#000000;fill-opacity:1;fill-rule:nonzero;stroke:none"
           id="path6280" />
      </g>
      <g
         id="g6282"
         transform="matrix(2.0974204,0,0,-2.0974204,380.55688,448.25155)">
        <path
           d="m 0,0 -11.166,0 c -1.937,0 -3.503,-1.566 -3.503,-3.502 l 0,-15.436 5.769,0 0,7.871 7.587,0 0,3.856 -7.587,0 0,2.181 c 0,0.741 0.603,1.343 1.342,1.343 L 0,-3.687 0,0 Z"
           style="fill:#000000;fill-opacity:1;fill-rule:nonzero;stroke:none"
           id="path6284" />
      </g>
      <g
         id="g6286"
         transform="matrix(2.0974204,0,0,-2.0974204,425.72503,448.25155)">
        <path
           d="m 0,0 0,-1.729 c 0,-1.22 -0.971,-2.209 -2.166,-2.209 l -2.854,0 L -5.02,0 0,0 Z"
           style="fill:#000000;fill-opacity:1;fill-rule:nonzero;stroke:none"
           id="path6288" />
      </g>
      <g
         id="g6290"
         transform="matrix(2.0974204,0,0,-2.0974204,409.3901,490.32896)">
        <path
           d="m 0,0 1.619,0 c 0.636,0 1.15,0.514 1.15,1.151 l 0,12.655 5.019,0 0,-12.789 C 7.788,-0.918 6.221,-2.49 4.285,-2.49 L 0,-2.49 0,0 Z"
           style="fill:#000000;fill-opacity:1;fill-rule:nonzero;stroke:none"
           id="path6292" />
      </g>
      <g
         id="g6294"
         transform="matrix(2.0974204,0,0,-2.0974204,468.44363,471.75735)">
        <path
           d="m 0,0 -1.06,0 4.844,4.963 -5.44,0 -3.14,-3.018 0,9.268 -4.874,0 0,-18.944 4.874,0 0,5.681 1.907,0 c 0.538,0 0.976,-0.437 0.976,-0.978 l 0,-4.707 4.941,0 0,4.707 C 3.028,-1.354 1.674,0 0,0"
           style="fill:#000000;fill-opacity:1;fill-rule:nonzero;stroke:none"
           id="path6296" />
      </g>
      <g
         id="g6298"
         transform="matrix(2.0974204,0,0,-2.0974204,520.32415,470.0513)">
        <path
           d="M 0,0 C 0,0.618 0.5,1.101 1.12,1.124 1.498,1.135 2.637,1.091 3.231,1.015 l 0,3.112 C 1.188,4.424 -0.602,4.276 -1.187,4.24 -3.248,4.108 -4.667,2.676 -4.667,0.756 l 0,-9.303 4.667,0 L 0,0 Z"
           style="fill:#000000;fill-opacity:1;fill-rule:nonzero;stroke:none"
           id="path6300" />
      </g>
      <g
         id="g6302"
         transform="matrix(2.0974204,0,0,-2.0974204,305.24229,487.68683)">
        <path
           d="m 0,0 c 1.256,0 2.331,0.806 2.735,1.927 l 3.15,8.687 5.619,0 c 2.49,0 4.504,2.014 4.504,4.507 l 0,3.777 -12.565,0 c -2.257,0 -4.184,-1.429 -4.916,-3.432 L -7.103,0 0,0 Z"
           style="fill:#003b83;fill-opacity:1;fill-rule:nonzero;stroke:none"
           id="path6304" />
      </g>
      <g
         id="g6306"
         transform="matrix(2.0974204,0,0,-2.0974204,306.20291,427.3193)">
        <path
           d="m 0,0 c -4.174,0 -7.561,-3.383 -7.561,-7.558 l 0,-14.422 3.441,9.445 c 1.057,2.904 3.838,4.977 7.105,4.977 l 10.244,0 c 2.487,0 4.505,2.017 4.505,4.506 L 17.734,0 0,0 Z"
           style="fill:#00b9ef;fill-opacity:1;fill-rule:nonzero;stroke:none"
           id="path6308" />
      </g>
    </g>
  </g>
</svg>
